<svg width="204" height="55" viewBox="0 0 204 55" fill="none" xmlns="http://www.w3.org/2000/svg">
<path fill-rule="evenodd" clip-rule="evenodd" d="M52.5219 11.1749L42.4621 14.1592L45.5719 4.50452L36.9643 10.3276L36.8131 0.219238L29.9629 9.01804V9.14072C34.6932 9.48023 38.9443 11.466 42.1083 14.4987C45.2723 17.5372 47.3408 21.6285 47.7003 26.182H47.8116L56.9841 19.58L46.4564 19.4374L52.5248 11.1778L52.5219 11.1749Z" fill="#FFCA05"/>
<path fill-rule="evenodd" clip-rule="evenodd" d="M29.9629 51.4117C32.5478 51.2662 35.0328 50.7441 37.3494 49.8968L35.2039 44.9268C33.552 45.5202 31.7945 45.8968 29.9629 46.0309V51.4117Z" fill="#FFCA05"/>
<path fill-rule="evenodd" clip-rule="evenodd" d="M38.6826 49.3687L36.5371 44.3987C38.4087 43.5713 40.1177 42.4701 41.607 41.1377L45.5727 44.9437C43.5642 46.7611 41.2389 48.2675 38.6855 49.3687H38.6826Z" fill="#FFCA05"/>
<path fill-rule="evenodd" clip-rule="evenodd" d="M46.5877 43.9677C48.4821 42.039 50.0485 39.808 51.1954 37.3572L46.0029 35.2944C45.1498 37.0919 44.0029 38.7295 42.6191 40.1617L46.5877 43.9677Z" fill="#FFCA05"/>
<path fill-rule="evenodd" clip-rule="evenodd" d="M51.7492 36.0792L46.5566 34.0164C47.17 32.4301 47.5581 30.7468 47.7007 28.9922H53.3241C53.17 31.4743 52.6308 33.8566 51.7492 36.0792Z" fill="#FFCA05"/>
<path fill-rule="evenodd" clip-rule="evenodd" d="M27.036 3.75977C24.4512 3.89956 21.9662 4.42738 19.6523 5.27473L21.7978 10.2419C23.444 9.65131 25.2044 9.27185 27.036 9.14061V3.75977Z" fill="#FFCA05"/>
<path fill-rule="evenodd" clip-rule="evenodd" d="M18.3219 5.80266L20.4645 10.7727C18.5958 11.5972 16.884 12.707 15.3975 14.0308L11.4375 10.2249C13.4432 8.40464 15.7684 6.90108 18.3219 5.7998V5.80266Z" fill="#FFCA05"/>
<path fill-rule="evenodd" clip-rule="evenodd" d="M10.4161 11.2036C8.52169 13.1323 6.95537 15.3634 5.80273 17.817L10.9953 19.8797C11.8569 18.0852 13.001 16.4418 14.3847 15.0124L10.4161 11.2065V11.2036Z" fill="#FFCA05"/>
<path fill-rule="evenodd" clip-rule="evenodd" d="M5.25156 19.0923L10.4441 21.1579C9.8307 22.7413 9.43698 24.4275 9.30004 26.1821H3.67383C3.82504 23.7 4.37282 21.3177 5.25156 19.0923Z" fill="#FFCA05"/>
<path fill-rule="evenodd" clip-rule="evenodd" d="M0 35.5684L10.5363 35.7253L4.45646 43.9792L14.5249 41.0035L11.3979 50.6582L20.0141 44.8408L20.1511 54.9463L27.0355 46.1304V46.0334C22.308 45.691 18.0541 43.7082 14.8986 40.6725C11.7317 37.6312 9.65757 33.5399 9.30379 28.995H9.16399L0 35.5684Z" fill="#FFCA05"/>
<path fill-rule="evenodd" clip-rule="evenodd" d="M34.1924 10.9802L31.7494 16.7607C31.0108 16.5116 30.2414 16.3312 29.4412 16.2368V9.96387C31.1007 10.0898 32.6929 10.442 34.1896 10.9802M40.1538 14.5504C38.7863 13.3107 37.2166 12.2829 35.5065 11.5099L33.0551 17.2932C33.9902 17.7427 34.8522 18.3125 35.6245 18.9853L40.1538 14.5504ZM44.276 20.0732L38.337 22.481C37.8793 21.5677 37.3037 20.7203 36.6241 19.9644L41.1591 15.5267C42.4227 16.8638 43.4814 18.3983 44.276 20.0732ZM45.8682 26.0111C45.7334 24.3878 45.3768 22.8246 44.818 21.3559L38.8818 23.7637C39.1345 24.4851 39.3142 25.2353 39.4069 26.014H45.8682V26.0111ZM44.818 33.4894L38.8818 31.0816C39.1345 30.3629 39.3142 29.6071 39.4069 28.8341H45.8682C45.7334 30.4546 45.3768 32.0178 44.818 33.4894ZM41.1591 39.3156C42.4227 37.9786 43.4814 36.444 44.276 34.7663L38.337 32.3585C37.8793 33.2746 37.3037 34.1221 36.6241 34.8779L41.1591 39.3156ZM35.5037 43.3325L33.0523 37.552C33.9874 37.1025 34.8494 36.5328 35.6217 35.86L40.151 40.2948C38.7835 41.5316 37.2138 42.5594 35.5037 43.3325ZM29.4412 44.8814C31.1007 44.7497 32.6929 44.4032 34.1896 43.8621L31.7466 38.0817C31.008 38.3279 30.2386 38.5111 29.4383 38.6056V44.8785L29.4412 44.8814ZM21.8089 43.865L24.2547 38.0845C24.9932 38.3307 25.7626 38.514 26.5573 38.6085V44.8814C24.9034 44.7497 23.3084 44.4032 21.8061 43.8621L21.8089 43.865ZM15.8474 40.2948C17.2206 41.5316 18.7846 42.5594 20.5003 43.3325L22.949 37.552C22.0111 37.1025 21.1518 36.5328 20.3796 35.86L15.8474 40.2948ZM11.7308 34.7691L17.6614 32.3642C18.1191 33.2775 18.6976 34.125 19.3771 34.8808L14.845 39.3185C13.5757 37.9786 12.5227 36.4469 11.7308 34.7691ZM10.1387 28.8341C10.2706 30.4546 10.6301 32.0178 11.1861 33.4865L17.1251 31.0816C16.8724 30.3629 16.6926 29.6071 16.5944 28.8341H10.1387ZM11.1861 21.3559L17.1251 23.7637C16.8724 24.4851 16.6926 25.2353 16.5944 26.0111H10.1387C10.2706 24.3878 10.6301 22.8246 11.1861 21.3559ZM14.8478 15.5267C13.5785 16.8638 12.5255 18.3983 11.7336 20.0732L17.6642 22.481C18.1219 21.5677 18.7004 20.7203 19.3799 19.9644L14.8478 15.5267ZM20.5003 11.5099L22.949 17.2932C22.0111 17.7456 21.1518 18.3125 20.3796 18.9853L15.8474 14.5504C17.2177 13.3107 18.7846 12.2829 20.5003 11.5099ZM26.5601 9.96387C24.9062 10.0898 23.3112 10.442 21.8089 10.9802L24.2547 16.7607C24.9932 16.5116 25.7626 16.3312 26.5573 16.2368V9.96387H26.5601Z" fill="#F48120"/>
<path fill-rule="evenodd" clip-rule="evenodd" d="M31.6746 17.7284L29.8171 22.3973V17.2779C30.4546 17.3674 31.0756 17.5196 31.6746 17.7314M35.1369 19.7929C34.4801 19.1962 33.741 18.686 32.9551 18.2773L30.3776 24.7481L35.1369 19.7929ZM37.5852 23.0864C37.1922 22.263 36.6949 21.5023 36.1206 20.8161L31.3614 25.7744L37.5852 23.0894V23.0864ZM38.5606 26.3591H33.6256L38.1182 24.423C38.3216 25.0435 38.4672 25.6938 38.5606 26.3591ZM38.1182 31.2398L33.6256 29.3007H38.5606C38.4672 29.9689 38.3216 30.6163 38.1182 31.2398ZM36.1206 34.8467C36.6976 34.1605 37.1922 33.3968 37.5852 32.5764L31.3614 29.8884L36.1206 34.8467ZM32.9578 37.3825C33.7437 36.9738 34.4801 36.4636 35.1396 35.864L30.3859 30.9057L32.9606 37.3795L32.9578 37.3825ZM29.8171 38.3849V33.2625L31.6746 37.9314C31.0756 38.1372 30.4601 38.2954 29.8171 38.3849ZM25.143 37.9314L26.9978 33.2625V38.3849C26.3576 38.2954 25.7366 38.1372 25.143 37.9314ZM21.6808 35.864C22.3375 36.4636 23.0684 36.9738 23.8626 37.3825L26.4318 30.9087L21.6808 35.8669V35.864ZM19.2325 32.5734C19.6254 33.3938 20.1173 34.1575 20.6971 34.8437L25.4508 29.8854L19.2325 32.5734ZM18.2598 29.3007H23.1893L18.6994 31.2398C18.4988 30.6163 18.3477 29.9689 18.2598 29.3007ZM18.6994 24.423L23.1893 26.3591H18.2598C18.3477 25.6938 18.4988 25.0405 18.6994 24.423ZM20.6971 20.8131C20.12 21.4993 19.6254 22.2601 19.2325 23.0835L25.4508 25.7684L20.6971 20.8102V20.8131ZM23.8626 18.2803C23.0684 18.686 22.3375 19.1962 21.6808 19.7958L26.4318 24.7511L23.8626 18.2803ZM26.9978 17.2749V22.3943L25.143 17.7254C25.7366 17.5166 26.3576 17.3644 26.9978 17.272V17.2749Z" fill="#C94235"/>
<g clip-path="url(#clip0_3303_10700)">
<path fill-rule="evenodd" clip-rule="evenodd" d="M70.4142 19.4936H66.7087L68.6949 14.9365L70.4142 19.4936ZM74.5542 25.0583C74.0111 24.3403 73.3252 22.9723 72.509 20.9541C71.7797 19.13 70.9418 16.7267 69.9952 13.7502H67.7267C67.7949 13.8457 67.826 13.9412 67.826 14.0398L67.8601 14.2925C67.8601 14.4712 67.6956 15.0258 67.3605 15.9502L66.7863 17.4261L66.0694 19.0807C65.5015 20.3563 64.9088 21.5333 64.2943 22.6149C63.9964 23.1541 63.7077 23.6132 63.4471 23.9983C63.1771 24.3835 62.9071 24.7378 62.6309 25.0613H64.9739L64.8746 24.7717V24.519C64.8746 24.2448 64.946 23.909 65.0701 23.5146C65.1943 23.1202 65.3867 22.621 65.6381 22.0202L66.4077 20.1622H70.6966L72.5463 25.0613H74.5542V25.0583Z" fill="#231F20"/>
<path fill-rule="evenodd" clip-rule="evenodd" d="M87.4363 19.4412C87.4363 21.0157 87.0267 22.2328 86.2043 23.1078C85.385 23.9768 84.2305 24.4112 82.7378 24.4112C81.9929 24.4112 81.4498 24.3681 81.1116 24.2664C80.8043 24.1524 80.6368 23.9459 80.5964 23.6594L80.5374 22.5964V15.753L80.5964 14.8348L80.6336 14.4743L81.0526 14.4034L81.5243 14.348L82.474 14.2956C84.0567 14.2956 85.2826 14.7454 86.1422 15.6451C87.0018 16.5479 87.4332 17.8143 87.4332 19.4474M89.3077 18.8835C89.3077 17.2258 88.8173 15.9225 87.8429 14.9673C86.8622 14.0152 85.5588 13.5376 83.9046 13.5376L81.9961 13.6454L80.5033 13.7348L79.8454 13.7502H78.5078C78.6692 13.9073 78.7871 14.3017 78.8647 14.9334C78.9454 15.5681 78.9857 16.9824 78.9857 19.1916V19.9157C78.9857 21.9863 78.9361 23.3235 78.8461 23.9336C78.7654 24.5437 78.6475 24.9288 78.5109 25.0983H81.1892L82.9085 25.1538C84.9008 25.1538 86.4619 24.593 87.6008 23.4714C88.7367 22.3499 89.3108 20.8216 89.3108 18.8897L89.3077 18.8835Z" fill="#231F20"/>
<path fill-rule="evenodd" clip-rule="evenodd" d="M96.6971 25.0582C96.6071 24.975 96.5357 24.861 96.4892 24.7193C96.4426 24.5744 96.3961 24.331 96.3495 23.989C96.3061 23.647 96.2782 23.3635 96.2626 23.1417C96.2502 22.9229 96.2409 22.6795 96.2409 22.4145V18.7016C96.2409 17.8882 96.2502 17.1764 96.2719 16.5787C96.2906 15.9779 96.3123 15.4294 96.3402 14.9395C96.4271 14.3263 96.5419 13.9319 96.6971 13.7501H94.2051C94.3665 13.9073 94.4875 14.3017 94.562 14.9333C94.6396 15.5619 94.6799 16.9762 94.6799 19.1731V19.8941C94.6799 21.9585 94.6334 23.2957 94.5465 23.8997C94.4596 24.5036 94.3447 24.8949 94.2082 25.0613H96.7002L96.6971 25.0582Z" fill="#231F20"/>
<path fill-rule="evenodd" clip-rule="evenodd" d="M110.961 13.7469H101.67L101.238 15.1334L101.595 14.9516C101.694 14.89 101.865 14.8346 102.104 14.7822C102.346 14.7236 102.66 14.699 103.044 14.699H104.972L105.083 16.8435V20.0819C105.083 22.0261 105.049 23.2986 104.972 23.8995C104.922 24.488 104.81 24.8762 104.63 25.0519H107.125C107.011 24.944 106.924 24.8084 106.855 24.6482C106.796 24.488 106.765 24.3031 106.765 24.1028C106.738 23.9334 106.713 23.7023 106.694 23.4034C106.682 23.1015 106.669 22.7594 106.669 22.3804V17.0869L106.765 14.699L108.997 14.6435C109.456 14.6435 109.863 14.5757 110.204 14.4463C110.521 14.2676 110.769 14.0304 110.958 13.7407" fill="#231F20"/>
<path fill-rule="evenodd" clip-rule="evenodd" d="M123.244 13.7471H120.901C121.019 13.8703 121.087 13.9874 121.127 14.1107C121.192 14.2031 121.217 14.3294 121.217 14.4896C121.217 14.8255 120.919 15.5465 120.311 16.6496L120.202 16.8499L118.651 19.6045L117.689 16.9577L117.198 15.8331L116.727 14.8008C116.497 14.3263 116.292 14.0398 116.103 13.9289C115.976 13.8087 115.842 13.7471 115.706 13.7471H113.76C113.996 13.9381 114.266 14.2277 114.564 14.6129C114.858 14.998 115.125 15.4078 115.38 15.8392C116.177 17.1456 116.724 18.2949 117.031 19.284C117.344 20.2762 117.496 21.3176 117.496 22.4114V23.2896L117.391 24.0106C117.298 24.4574 117.177 24.8055 117.028 25.0551H119.423C119.268 24.7655 119.178 24.4913 119.138 24.2294C119.088 24.026 119.067 23.8442 119.067 23.6871V23.2557C119.067 22.0571 119.119 21.1636 119.237 20.5874L119.473 19.7031L119.839 18.9112L121.071 16.9207L122.049 15.4448L123.241 13.7471H123.244Z" fill="#231F20"/>
<path fill-rule="evenodd" clip-rule="evenodd" d="M132.352 19.4934H128.649L130.632 14.9363L132.352 19.4934ZM136.492 25.0581C135.949 24.3401 135.269 22.9721 134.447 20.9539C133.717 19.1298 132.882 16.7265 131.933 13.75H129.67C129.732 13.8455 129.767 13.941 129.767 14.0396L129.804 14.2923C129.804 14.471 129.633 15.0256 129.298 15.95L128.727 17.4259L128.007 19.0805C127.439 20.3561 126.846 21.5331 126.232 22.6147C125.928 23.1539 125.648 23.613 125.381 23.9981C125.115 24.3833 124.845 24.7376 124.568 25.0611H126.911L126.815 24.7715V24.5188C126.815 24.2446 126.877 23.9088 127.005 23.5144C127.129 23.12 127.321 22.6208 127.569 22.02L128.345 20.162H132.634L134.487 25.0611H136.489L136.492 25.0581Z" fill="#231F20"/>
<path fill-rule="evenodd" clip-rule="evenodd" d="M153.539 21.8353C153.539 22.6888 153.291 23.3513 152.797 23.8166C152.304 24.2849 151.63 24.5222 150.777 24.5222C150.407 24.5222 150.072 24.479 149.768 24.3927C149.504 24.2849 149.349 24.1925 149.309 24.1093L149.234 23.6902L149.197 23.0986V19.1917H150.349C151.37 19.1917 152.155 19.4197 152.707 19.8849C153.256 20.3471 153.536 20.9972 153.536 21.8353M153.086 16.1289C153.086 16.9085 152.797 17.5031 152.211 17.9191C151.621 18.332 150.783 18.5415 149.684 18.5415H149.194V15.5805L149.253 14.8718L149.327 14.3788L149.88 14.3449H150.398C151.248 14.3449 151.906 14.499 152.384 14.8132C152.85 15.1245 153.086 15.5651 153.086 16.1289ZM155.429 21.6905C155.429 20.8401 155.125 20.1468 154.519 19.6107C153.917 19.0746 153.076 18.7541 151.99 18.6463C152.946 18.3012 153.666 17.8821 154.132 17.3953C154.606 16.9085 154.842 16.3662 154.842 15.7653C154.842 15.0813 154.603 14.5452 154.125 14.1631C153.632 13.8026 152.927 13.6208 152.012 13.6208L150.404 13.6763L148.707 13.7471H147.161C147.316 13.9043 147.438 14.2987 147.515 14.9303C147.59 15.5589 147.627 16.9732 147.627 19.1701V19.8911C147.627 21.9524 147.58 23.2927 147.493 23.8967C147.406 24.5006 147.295 24.8919 147.158 25.0583H148.4L149.629 25.1137L150.969 25.1692C152.322 25.1692 153.396 24.8426 154.209 24.1986C155.022 23.5516 155.429 22.7166 155.429 21.6936V21.6905Z" fill="#231F20"/>
<path fill-rule="evenodd" clip-rule="evenodd" d="M162.633 25.0582C162.536 24.975 162.471 24.861 162.425 24.7193C162.378 24.5744 162.335 24.331 162.285 23.989C162.239 23.647 162.211 23.3635 162.198 23.1417C162.186 22.9229 162.183 22.6795 162.183 22.4145V18.7016C162.183 17.8882 162.192 17.1764 162.211 16.5787C162.226 15.9779 162.248 15.4294 162.276 14.9395C162.363 14.3263 162.478 13.9319 162.633 13.7501H160.141C160.296 13.9073 160.417 14.3017 160.498 14.9333C160.572 15.5619 160.612 16.9762 160.612 19.1731V19.8941C160.612 21.9585 160.566 23.2957 160.476 23.8997C160.392 24.5036 160.277 24.8949 160.141 25.0613H162.633V25.0582Z" fill="#231F20"/>
<path fill-rule="evenodd" clip-rule="evenodd" d="M173.475 16.397C173.475 17.2505 173.243 17.8944 172.771 18.332C172.299 18.7726 171.616 18.9913 170.723 18.9913L170.307 18.9759L169.984 18.9205V14.9457L170.08 14.3664L170.546 14.3295H171.272C172.014 14.3295 172.566 14.502 172.929 14.8533C173.298 15.2014 173.475 15.716 173.475 16.4M177.271 25.0582L176.78 24.6423L176.253 24.1585C176.101 24.0137 175.921 23.8073 175.71 23.5454C175.492 23.2804 175.288 23.0092 175.086 22.7288L172.454 19.2224C173.357 18.8527 174.049 18.3874 174.518 17.8297C174.99 17.272 175.226 16.6188 175.226 15.8762C175.226 15.1337 174.987 14.5606 174.509 14.2031C174.08 13.8303 173.379 13.6454 172.414 13.6454L170.825 13.7379H167.898C168.072 13.895 168.206 14.2832 168.283 14.918C168.367 15.5496 168.407 16.967 168.407 19.1639V19.8849C168.407 21.9524 168.358 23.2896 168.262 23.8966C168.165 24.5036 168.051 24.8949 167.898 25.0613H170.39C170.245 24.8857 170.148 24.6392 170.108 24.3342C170.071 24.0291 170.04 23.7518 170.009 23.5053C169.987 23.2588 169.978 23.0092 169.978 22.7566V19.6076H170.111C170.384 19.6076 170.623 19.6507 170.834 19.737C171.036 19.8263 171.263 20.0389 171.498 20.3625L174.605 24.6084C174.745 24.8179 174.878 24.935 175.002 24.972C175.111 25.0305 175.281 25.0582 175.533 25.0582H177.271Z" fill="#231F20"/>
<path fill-rule="evenodd" clip-rule="evenodd" d="M187.345 23.188C187.016 23.6563 186.597 23.986 186.088 24.1678C185.579 24.3527 184.843 24.4482 183.887 24.4482H182.925C182.863 24.2417 182.835 24.0322 182.835 23.8134L182.758 23.3112V18.9205L182.817 16.7328L182.854 15.0012C182.944 14.351 183.062 13.9351 183.211 13.7533H180.719C180.883 13.9104 181.004 14.3048 181.079 14.9365C181.153 15.5681 181.19 16.9855 181.19 19.1947V19.9157C181.19 21.9863 181.144 23.3235 181.057 23.9336C180.97 24.5437 180.858 24.9288 180.719 25.0983H186.1L186.535 25.0613L186.95 24.9874L187.348 23.191L187.345 23.188Z" fill="#231F20"/>
<path fill-rule="evenodd" clip-rule="evenodd" d="M198.076 19.4935H194.376L196.359 14.9364L198.076 19.4935ZM202.209 25.0582C201.672 24.3403 200.99 22.9722 200.173 20.954C199.438 19.1299 198.606 16.7266 197.66 13.7501H195.394C195.456 13.8457 195.487 13.9412 195.487 14.0398L195.521 14.2924C195.521 14.4711 195.357 15.0258 195.016 15.9501L194.448 17.426L193.731 19.0806C193.163 20.3563 192.57 21.5333 191.956 22.6148C191.655 23.154 191.369 23.6131 191.105 23.9983C190.845 24.3834 190.571 24.7377 190.289 25.0613H192.635L192.539 24.7716V24.519C192.539 24.2448 192.604 23.9089 192.731 23.5145C192.856 23.1201 193.048 22.621 193.296 22.0201L194.069 20.1621H198.361L200.208 25.0613H202.209V25.0582Z" fill="#231F20"/>
</g>
<g clip-path="url(#clip1_3303_10700)">
<path d="M203.999 28.7481H62.6309V42.1692H203.999V28.7481Z" fill="#9D2E33"/>
<path fill-rule="evenodd" clip-rule="evenodd" d="M66.0464 31.8587L66.5203 34.9823C66.7074 36.2042 66.8383 37.252 66.9194 38.1225C66.9693 37.909 67.0348 37.4852 67.1189 36.8579C67.2686 35.6984 67.4962 34.0331 67.7924 31.8554H68.9428L69.7316 37.9878C70.0746 35.4422 70.3739 33.3926 70.6264 31.8389H71.4651C71.4557 31.9375 71.2624 33.1397 70.8852 35.4521C70.7698 36.1977 70.5641 37.3998 70.2866 39.0487H69.1205L68.6872 36.0039C68.5375 34.8542 68.4222 33.8262 68.3411 32.9426C68.1946 34.4404 67.9233 36.4769 67.5118 39.0455H66.3457L65.1797 31.8554H66.0464V31.8587Z" fill="white"/>
<path fill-rule="evenodd" clip-rule="evenodd" d="M80.784 31.7506C81.4886 31.7506 81.9656 31.9838 82.2088 32.4469C82.3803 32.7721 82.4613 33.3272 82.4613 34.1024C82.4613 34.9432 82.4614 35.6199 82.4582 36.1388C82.4426 37.1374 82.3741 37.8074 82.2493 38.1589C82.0124 38.829 81.498 39.164 80.7029 39.164C79.9484 39.164 79.4496 38.9275 79.2002 38.4578C79.0256 38.1359 78.9414 37.5545 78.9414 36.7202C78.9414 35.702 78.9508 34.8874 78.9632 34.2765C78.9757 33.4027 79.0692 32.8049 79.2376 32.483C79.4964 31.9969 80.0139 31.7506 80.784 31.7506ZM80.7029 38.4217C80.89 38.4217 81.0521 38.3691 81.1955 38.2574C81.4793 38.0341 81.6164 37.1867 81.6164 35.7086V34.0268C81.6164 32.9922 81.3296 32.4732 80.7403 32.4732C80.123 32.4732 79.8113 33.14 79.8113 34.4604V36.8385C79.8113 37.8961 80.1106 38.4184 80.7029 38.4184V38.4217Z" fill="white"/>
<path fill-rule="evenodd" clip-rule="evenodd" d="M90.377 31.8687H92.3256C93.3264 31.8687 93.819 32.5125 93.819 33.7935C93.819 34.3224 93.7753 34.7264 93.6787 35.0187C93.5321 35.4687 93.2578 35.738 92.8587 35.8267L94.112 39.0621H93.2048L92.0075 35.9187H91.2468V39.0621H90.377V31.8687ZM91.6022 35.2289C92.1416 35.2289 92.5033 35.1599 92.6716 35.0187C92.8712 34.861 92.9709 34.5096 92.9709 33.9709C92.9709 33.5012 92.9086 33.1694 92.7776 32.9822C92.6654 32.8081 92.4783 32.7096 92.2195 32.6899C92.2164 32.6899 91.8891 32.68 91.2437 32.6603V35.2256H91.5991L91.6022 35.2289Z" fill="white"/>
<path fill-rule="evenodd" clip-rule="evenodd" d="M101.773 31.8687H102.665V38.2705H104.782V39.072H101.773V31.8687Z" fill="white"/>
<path fill-rule="evenodd" clip-rule="evenodd" d="M112.283 31.8883H114.116C114.799 31.8883 115.27 32.151 115.526 32.6733C115.703 33.0412 115.797 33.6127 115.797 34.3846C115.797 35.4915 115.775 36.4703 115.735 37.3276C115.682 38.4904 115.167 39.0751 114.201 39.0751H112.283V31.8883ZM113.917 38.3032C114.251 38.3032 114.5 38.1981 114.668 37.9747C114.796 37.8039 114.877 37.4656 114.905 36.9663C114.905 36.9171 114.908 36.5557 114.908 35.8725C114.908 35.8134 114.908 35.6755 114.911 35.4652C114.915 35.255 114.915 35.1171 114.915 35.0579C114.915 34.0134 114.862 33.3762 114.746 33.1463C114.659 32.9623 114.54 32.8408 114.403 32.7817C114.297 32.7324 114.132 32.7127 113.911 32.7127H113.141V38.2703C113.44 38.2933 113.696 38.3032 113.911 38.3032H113.917Z" fill="white"/>
<path fill-rule="evenodd" clip-rule="evenodd" d="M131.358 31.8521H132.216L133.722 39.0521H132.811L132.537 37.6824H130.928L130.688 39.0521H129.771L131.358 31.8521ZM132.422 36.8941L131.764 33.189L131.084 36.8941H132.422Z" fill="white"/>
<path fill-rule="evenodd" clip-rule="evenodd" d="M143.53 34.1316C143.53 34.0659 143.54 33.9871 143.54 33.8951C143.54 33.478 143.512 33.1856 143.452 33.0017C143.353 32.67 143.141 32.509 142.829 32.509C142.467 32.509 142.221 32.6404 142.09 32.8966C141.953 33.1791 141.887 33.8787 141.887 35.0021C141.887 35.8988 141.9 36.6444 141.925 37.2323C141.937 37.6035 142 37.8728 142.099 38.0502C142.224 38.2867 142.458 38.4049 142.792 38.4049C143.315 38.4049 143.574 37.932 143.574 36.9761V36.5097C143.786 36.4998 143.908 36.4998 143.936 36.4998C144.089 36.4998 144.241 36.5097 144.391 36.5425V37.1929C144.391 37.8531 144.288 38.3261 144.082 38.6283C143.836 38.9929 143.399 39.1735 142.782 39.1735C142.056 39.1735 141.557 38.9075 141.276 38.3721C141.086 37.9878 140.986 37.3933 140.986 36.5852C140.986 36.5031 140.989 36.3126 140.996 36.0269C140.999 35.7345 141.002 35.5506 141.002 35.4718C141.002 34.4896 141.024 33.7966 141.077 33.3959C141.142 32.8473 141.289 32.4532 141.507 32.22C141.781 31.9145 142.199 31.7667 142.76 31.7667C143.484 31.7667 143.948 31.9999 144.151 32.463C144.244 32.6929 144.313 33.2546 144.347 34.1349H143.53V34.1316Z" fill="white"/>
<path fill-rule="evenodd" clip-rule="evenodd" d="M153.255 31.8521H154.115L155.618 39.052H154.705L154.43 37.6824H152.822L152.581 39.052H151.668L153.252 31.8521H153.255ZM154.318 36.894L153.663 33.189L152.981 36.894H154.318Z" fill="white"/>
<path fill-rule="evenodd" clip-rule="evenodd" d="M163.172 31.8882H165.002C165.688 31.8882 166.156 32.151 166.408 32.6732C166.586 33.0411 166.679 33.6127 166.679 34.3845C166.679 35.4915 166.658 36.4703 166.617 37.3276C166.561 38.4903 166.05 39.075 165.083 39.075H163.172V31.8882ZM164.806 38.3031C165.136 38.3031 165.389 38.198 165.551 37.9747C165.682 37.8039 165.76 37.4655 165.788 36.9663C165.788 36.917 165.791 36.5557 165.791 35.8725C165.791 35.8134 165.791 35.6754 165.8 35.4652C165.8 35.255 165.803 35.117 165.803 35.0579C165.803 34.0134 165.75 33.3762 165.638 33.1462C165.548 32.9623 165.429 32.8408 165.292 32.7816C165.189 32.7324 165.024 32.7127 164.799 32.7127H164.029V38.2703C164.325 38.2933 164.584 38.3031 164.802 38.3031H164.806Z" fill="white"/>
<path fill-rule="evenodd" clip-rule="evenodd" d="M174.547 31.8389H177.733V32.67H175.479V34.7656H177.437V35.5736H175.454V38.2243H177.796V39.0356H174.547V31.8389Z" fill="white"/>
<path fill-rule="evenodd" clip-rule="evenodd" d="M185.413 31.8687H186.776L187.399 35.8431C187.449 36.1388 187.521 36.5822 187.614 37.1767C187.689 37.6628 187.736 38.1063 187.752 38.5201C187.842 37.6596 187.998 36.5493 188.219 35.1862L188.762 31.872H190.115V39.0752H189.31L189.423 32.4632L188.335 39.0752H187.203L186.162 32.5946L186.261 39.0752H185.41V31.872L185.413 31.8687Z" fill="white"/>
<path fill-rule="evenodd" clip-rule="evenodd" d="M198.461 31.8389L199.455 35.3961L200.506 31.8389H201.447C201.229 32.4367 200.849 33.5173 200.294 35.0808C200.154 35.4684 200.035 35.8494 199.914 36.2337C199.892 36.4538 199.885 36.756 199.885 37.137C199.885 37.2815 199.885 37.6001 199.898 38.0928C199.91 38.5888 199.914 38.9008 199.914 39.0355H198.972C198.972 38.8253 198.972 38.4738 198.975 37.9877V36.9432C198.975 36.4932 198.972 36.2567 198.963 36.2304C198.928 36.0268 198.86 35.7804 198.751 35.4881C198.682 35.3304 198.595 35.0874 198.476 34.7655L197.494 31.8356H198.461V31.8389Z" fill="white"/>
</g>
<defs>
<clipPath id="clip0_3303_10700">
<rect width="139.579" height="11.6316" fill="white" transform="translate(62.6309 13.5376)"/>
</clipPath>
<clipPath id="clip1_3303_10700">
<rect width="141.368" height="13.4211" fill="white" transform="translate(62.6309 28.7481)"/>
</clipPath>
</defs>
</svg>
