<?xml version="1.0" encoding="UTF-8"?>
<svg id="Layer_2" data-name="Layer 2" xmlns="http://www.w3.org/2000/svg" viewBox="0 0 484.94 538.09">
  <defs>
    <style>
      .cls-1 {
        fill: #5b5b5b;
      }

      .cls-2 {
        stroke: #000;
        stroke-miterlimit: 10;
        stroke-width: .22px;
      }

      .cls-3 {
        fill: #e31e24;
      }

      .cls-3, .cls-4, .cls-5 {
        fill-rule: evenodd;
      }

      .cls-4 {
        fill: #ec6b1e;
      }
    </style>
  </defs>
  <g id="Layer_1-2" data-name="Layer 1">
    <g>
      <path class="cls-3" d="M137.76,347.48v23.61c0,4.08.87,6.51,2.63,7.3,1.75.79,4.27,1.25,7.56,1.4h.53v3.22h-32.2v-3.33c.08.07.13.11.16.11h.16c3.44-.14,6.03-.63,7.78-1.45,1.75-.82,2.63-3.2,2.63-7.14v-47.86c0-3.86-.89-6.21-2.68-7.03-1.79-.82-4.36-1.31-7.73-1.45h-.32v-3.43h32.2v3.33c-.5.07-1.03.13-1.61.16-.57.04-1.14.09-1.72.16-.86.07-1.72.21-2.58.43-.86.22-1.65.5-2.36.86-.86.43-1.45,1.09-1.77,1.98-.32.9-.52,1.81-.59,2.74-.07.43-.1.84-.1,1.23v20.55h35.63v-19.53c0-3.72-.91-6.03-2.74-6.92-1.83-.9-4.49-1.41-7.99-1.56v-3.43h32.19v3.33c-.5.07-1.04.13-1.61.16-.57.04-1.11.09-1.61.16-.93.07-1.82.2-2.68.38-.86.18-1.64.48-2.36.91-.86.43-1.45,1.09-1.77,1.98-.32.9-.52,1.81-.59,2.74-.07.43-.11.84-.11,1.23v48.78c0,4.15.88,6.6,2.63,7.35,1.75.75,4.1,1.2,7.03,1.34h1.07v3.22h-32.19v-3.33c3.57-.07,6.26-.54,8.05-1.4,1.79-.86,2.68-3.22,2.68-7.08v-23.72h-35.63ZM205.49,383.01v-3.33c.07.07.12.11.16.11h.16c3.43-.14,6.03-.63,7.78-1.45,1.75-.82,2.63-3.2,2.63-7.14v-47.86c0-3.86-.9-6.21-2.68-7.03-1.79-.82-4.36-1.31-7.73-1.45h-.32v-3.43h32.19v3.33c-.5.07-1.04.13-1.61.16-.57.04-1.14.09-1.72.16-.86.07-1.72.21-2.58.43-.86.22-1.64.5-2.36.86-.86.43-1.45,1.09-1.77,1.98-.32.9-.52,1.81-.59,2.74-.07.43-.11.84-.11,1.23v48.78c0,4.08.88,6.51,2.63,7.3,1.75.79,4.27,1.25,7.57,1.4h.54v3.22h-32.19ZM307.02,383.01h-58.81v-3.33c.07.07.12.11.16.11h.16c3.43-.14,6.03-.63,7.78-1.45,1.75-.82,2.63-3.2,2.63-7.14v-47.86c0-3.86-.89-6.21-2.68-7.03-1.79-.82-4.36-1.31-7.73-1.45h-.32v-3.43h32.19v3.33c-.5.07-1.04.13-1.61.16-.57.04-1.14.09-1.72.16-.86.07-1.72.21-2.58.43-.86.22-1.64.5-2.36.86-.86.43-1.45,1.09-1.77,1.98-.32.9-.52,1.81-.59,2.74-.07.43-.11.84-.11,1.23v47.6c0,3.79,1.02,6.33,3.06,7.62,2.04,1.29,4.77,1.93,8.21,1.93,4.44,0,8.45-.41,12.02-1.24,3.58-.82,6.58-3.34,9.02-7.57.64-1.21,1.25-2.5,1.82-3.86.57-1.36,1-2.72,1.29-4.08.07-.28.13-.57.16-.86.04-.29.05-.57.05-.86l3.11-.11-1.39,22.11h0ZM376.04,383.01h-58.81v-3.33c.07.07.13.11.16.11h.16c3.44-.14,6.03-.63,7.78-1.45,1.75-.82,2.63-3.2,2.63-7.14v-47.86c0-3.86-.89-6.21-2.68-7.03-1.79-.82-4.36-1.31-7.73-1.45h-.33v-3.43h32.2v3.33c-.5.07-1.04.13-1.61.16-.57.04-1.14.09-1.71.16-.86.07-1.72.21-2.58.43-.86.22-1.65.5-2.36.86-.86.43-1.45,1.09-1.77,1.98-.32.9-.52,1.81-.59,2.74-.07.43-.11.84-.11,1.23v47.6c0,3.79,1.02,6.33,3.06,7.62,2.04,1.29,4.78,1.93,8.21,1.93,4.44,0,8.44-.41,12.02-1.24,3.58-.82,6.58-3.34,9.02-7.57.64-1.21,1.25-2.5,1.82-3.86.57-1.36,1-2.72,1.29-4.08.07-.28.13-.57.16-.86.04-.29.06-.57.06-.86l3.11-.11-1.39,22.11h0Z"/>
      <path class="cls-5" d="M142.03,403.5h-2.09c-.51-2.97-1.69-5.55-3.55-7.76-1.85-2.2-4.45-3.3-7.79-3.3-1.95,0-3.72.58-5.32,1.74-1.6,1.16-2.4,2.76-2.4,4.8,0,2.36.92,4.25,2.75,5.67,1.83,1.41,4,2.72,6.5,3.93.46.23.93.46,1.39.7.47.23.93.46,1.39.7,3.02,1.48,5.78,3.28,8.28,5.39,2.51,2.11,3.76,5.18,3.76,9.22s-1.28,7.44-3.83,10.22c-2.55,2.78-5.91,4.17-10.09,4.17-2.41,0-4.68-.44-6.81-1.32-2.14-.88-4.11-2.11-5.91-3.69-.33.6-.62,1.24-.87,1.91-.25.67-.47,1.31-.66,1.91h-2.16v-14.61h2.16v.28c.46,3.15,1.88,6.05,4.24,8.7,2.37,2.64,5.24,3.96,8.63,3.96,2.59,0,4.94-.69,7.03-2.05,2.08-1.37,3.13-3.51,3.13-6.44s-1.1-5.19-3.3-6.82c-2.21-1.62-4.72-3.11-7.55-4.45-.19-.09-.39-.19-.63-.28-.23-.09-.44-.21-.63-.35-3.06-1.44-5.85-3.12-8.38-5.04-2.53-1.92-3.79-4.76-3.79-8.52s1.3-6.49,3.9-8.62c2.59-2.14,5.61-3.2,9.04-3.2,1.9,0,3.75.27,5.53.8,1.78.53,3.4,1.4,4.83,2.61.23-.32.44-.66.63-1.01.19-.35.37-.71.56-1.08.05-.09.1-.2.18-.31.07-.12.13-.24.17-.38l1.67-.07v12.59h0ZM166.99,430.07c0,2.65.57,4.22,1.7,4.73,1.14.51,2.77.81,4.9.9h.35v2.09h-20.87v-2.16s.08.07.11.07h.1c2.23-.09,3.9-.41,5.04-.94,1.14-.53,1.71-2.07,1.71-4.62v-31.02c0-2.5-.58-4.02-1.74-4.55-1.16-.53-2.83-.85-5.01-.94h-.21v-2.23h16.35c.65.05,1.31.07,1.98.07s1.33.02,1.98.07c4.03.09,7.72.86,11.06,2.28,3.34,1.44,5.01,4.74,5.01,9.92,0,2.12-.5,4.1-1.5,5.92-.99,1.83-2.45,3.28-4.35,4.34-1.07.6-2.22,1.02-3.44,1.25-1.23.23-2.45.37-3.65.42-.46.05-.93.07-1.39.07h-8.14v14.33h0ZM172.35,413.59c3.15.05,5.54-.86,7.16-2.71,1.62-1.86,2.43-4.31,2.43-7.38,0-3.71-.88-6.32-2.64-7.83-1.76-1.51-4.43-2.26-8-2.26h-1.08c-.35,0-.71.02-1.08.07-.37,0-.73.01-1.08.03-.35.02-.71.04-1.08.04v20.03h5.36ZM209.2,430.07c0,2.65.57,4.22,1.7,4.73,1.14.51,2.77.81,4.91.9h.34v2.09h-20.86v-2.16s.08.07.1.07h.1c2.22-.09,3.91-.41,5.05-.94,1.13-.53,1.7-2.07,1.7-4.62v-31.02c0-2.5-.58-4.02-1.74-4.55-1.16-.53-2.83-.85-5.01-.94h-.2v-2.23h19.75c.74.05,1.51.08,2.29.11.79.02,1.58.08,2.36.17,1.44.19,2.85.5,4.24.94,1.39.44,2.65,1.08,3.76,1.92,1.35,1.02,2.43,2.27,3.24,3.76.81,1.48,1.22,3.11,1.22,4.87,0,3.57-1.33,6.41-4,8.52-2.67,2.11-5.69,3.21-9.07,3.3,2.78.42,4.96,1.35,6.53,2.78,1.58,1.44,3.04,3.13,4.38,5.08.32.51.67,1.04,1.04,1.6.38.56.77,1.14,1.18,1.74.19.28.36.54.52.8.16.26.33.52.52.8.09.18.2.37.31.55.12.19.24.35.38.49,1.07,1.71,2.27,3.29,3.62,4.73,1.35,1.44,3.13,2.16,5.36,2.16v2.09h-10.57c-1.48-1.21-2.82-2.71-4-4.52-1.18-1.81-2.33-3.69-3.44-5.64-.05-.09-.1-.18-.17-.28-.07-.09-.13-.18-.17-.28-.93-1.58-1.87-3.13-2.82-4.66-.95-1.53-1.98-2.92-3.09-4.18-.74-.83-1.59-1.42-2.54-1.77-.95-.35-1.96-.52-3.03-.52l-3.9-.07v14.19h0ZM215.26,413.59c3.34.05,5.73-.81,7.16-2.57,1.44-1.76,2.16-4.29,2.16-7.58s-.93-5.93-2.78-7.48c-1.85-1.55-4.38-2.33-7.58-2.33l-5.01-.07v20.03h6.05ZM247.24,437.8v-2.16s.08.07.1.07h.11c2.23-.09,3.91-.41,5.04-.94,1.14-.53,1.7-2.07,1.7-4.62v-31.02c0-2.5-.58-4.02-1.74-4.55-1.16-.53-2.83-.85-5.01-.94h-.21v-2.23h20.87v2.16c-.33.05-.67.08-1.04.1-.37.02-.74.06-1.11.1-.56.05-1.11.14-1.67.28-.56.14-1.07.32-1.53.56-.56.28-.94.71-1.15,1.29-.21.58-.34,1.17-.38,1.77-.05.28-.07.55-.07.8v31.62c0,2.65.57,4.22,1.7,4.73,1.14.51,2.77.81,4.9.9h.35v2.09h-20.87ZM311.37,422.77c.37.6.72,1.2,1.04,1.81.33.6.65,1.2.97,1.81.09.19.19.38.28.59.09.21.18.41.28.59v-2.37c-.04-.37-.07-.75-.07-1.15v-23.54c0-2.69-.36-4.36-1.08-5.01-.72-.65-1.68-1.09-2.89-1.32-.37-.05-.75-.12-1.15-.21-.39-.09-.82-.21-1.29-.35v-2.23h16v2.16c-2.46.09-4.18.68-5.18,1.77-1,1.09-1.5,2.84-1.5,5.25v37.63h-2.92l-24.76-34.5c-.84-1.07-1.62-2.18-2.37-3.34-.74-1.16-1.46-2.34-2.16-3.55v29.42c0,2.88.34,5.11,1.01,6.71.67,1.6,2.63,2.52,5.88,2.75v2.09h-16.63v-2.16c2.6-.05,4.41-.65,5.43-1.81,1.02-1.16,1.53-3.04,1.53-5.63v-29.08c0-2.5-.58-4.02-1.74-4.55-1.16-.53-2.83-.85-5.01-.94h-.21v-2.23h13.77l22.75,31.37h0ZM380.5,417.62v2.16h-1.04c-1.48.05-2.7.39-3.65,1.04-.95.65-1.43,1.79-1.43,3.41v10.23c-1.44.23-2.82.55-4.14.94-1.32.4-2.65.82-4,1.29-.09.05-.16.07-.21.07-1.71.6-3.46,1.13-5.22,1.57-1.76.44-3.59.66-5.49.66-6.54,0-11.97-2.18-16.28-6.54-4.31-4.36-6.47-9.79-6.47-16.28,0-6.91,2.17-12.94,6.5-18.09,4.33-5.15,10.12-7.72,17.35-7.72.56,0,1.12.02,1.71.07.58.05,1.14.12,1.7.21,1.9.23,3.78.71,5.64,1.43,1.86.72,3.52,1.66,5.01,2.82.37-.51.67-1.05.91-1.6.23-.56.44-1.14.63-1.74l1.95-.07.42,15.79h-2.36c-.6-3.94-2.25-7.39-4.94-10.33-2.69-2.95-6.16-4.42-10.43-4.42-5.52,0-9.43,1.94-11.72,5.81-2.3,3.87-3.65,8.15-4.07,12.83-.09.7-.15,1.41-.17,2.16-.02.74-.04,1.46-.04,2.16,0,.74.02,1.48.07,2.23.04.74.14,1.48.28,2.23.56,4.08,2.03,7.84,4.42,11.27,2.39,3.43,5.92,5.15,10.61,5.15.65,0,1.39-.07,2.23-.21.84-.14,1.72-.35,2.64-.63,1.62-.46,3.12-1.14,4.49-1.99,1.37-.86,2.05-1.85,2.05-2.97v-6.42c0-1.78-.48-2.93-1.42-3.51-.95-.56-2.29-.83-4-.83h-1.67v-2.16h20.17Z"/>
      <path class="cls-5" d="M138.81,508.66h-1.72c-.43-2.46-1.4-4.59-2.94-6.42-1.54-1.82-3.68-2.74-6.45-2.74-1.61,0-3.08.48-4.4,1.44-1.33.96-1.99,2.28-1.99,3.97,0,1.96.76,3.52,2.28,4.69,1.51,1.17,3.31,2.26,5.38,3.25.38.19.77.38,1.15.58.38.19.77.38,1.15.58,2.5,1.23,4.78,2.72,6.85,4.46,2.07,1.75,3.11,4.29,3.11,7.63s-1.05,6.16-3.16,8.46c-2.11,2.3-4.9,3.46-8.35,3.46-2,0-3.88-.37-5.64-1.1-1.77-.73-3.4-1.75-4.9-3.05-.27.5-.51,1.03-.72,1.58-.21.56-.39,1.08-.55,1.58h-1.79v-12.09h1.79v.23c.38,2.61,1.56,5.01,3.51,7.2,1.96,2.19,4.34,3.28,7.14,3.28,2.15,0,4.09-.57,5.82-1.7,1.72-1.13,2.59-2.91,2.59-5.33s-.91-4.3-2.73-5.65c-1.82-1.34-3.91-2.57-6.25-3.68-.16-.08-.33-.15-.52-.23-.19-.07-.36-.17-.52-.29-2.54-1.19-4.85-2.58-6.94-4.18-2.1-1.59-3.14-3.95-3.14-7.05s1.08-5.37,3.23-7.14c2.15-1.77,4.64-2.65,7.48-2.65,1.58,0,3.1.22,4.58.66,1.48.44,2.81,1.16,4,2.16.19-.27.36-.55.52-.84.15-.29.31-.58.46-.89.04-.08.09-.16.15-.26.06-.1.1-.2.14-.32l1.38-.06v10.42h0ZM186.63,512.58h-1.79c-.88-3.57-2.41-6.6-4.58-9.07-2.17-2.48-5.27-3.71-9.3-3.71s-7.17,1.49-9.19,4.46c-2.02,2.97-3.23,6.25-3.65,9.82-.08.57-.13,1.14-.17,1.7-.04.56-.06,1.13-.06,1.7,0,4.46,1.1,8.53,3.31,12.24,2.21,3.71,5.84,5.56,10.91,5.56h.75c2.8-.19,5.45-1.16,7.94-2.91,2.5-1.75,4.26-3.9,5.3-6.48l2.07,1.5c-1.46,3.3-3.74,5.87-6.85,7.71-3.11,1.84-6.41,2.84-9.9,3h-.81c-5.72,0-10.38-1.86-13.96-5.59-3.59-3.72-5.39-8.42-5.39-14.11s1.8-10.44,5.39-14.51c3.59-4.07,8.28-6.1,14.08-6.1,2.26,0,4.44.33,6.53,1.01,2.09.67,4.08,1.64,5.96,2.91.2-.31.37-.62.52-.95.16-.33.29-.66.4-1.01.04-.15.1-.32.17-.49.08-.17.13-.33.17-.49l1.61-.06.52,13.88h0ZM206.23,517.99v12.67c0,2.19.47,3.49,1.41,3.92.94.42,2.29.67,4.06.75h.29v1.73h-17.27v-1.79s.07.06.09.06h.09c1.84-.08,3.23-.34,4.17-.78.94-.44,1.41-1.72,1.41-3.83v-25.68c0-2.07-.48-3.33-1.44-3.77-.96-.44-2.34-.7-4.14-.78h-.17v-1.84h17.27v1.78c-.27.04-.56.07-.86.09-.31.02-.61.05-.92.09-.46.04-.92.11-1.38.23-.46.12-.88.27-1.27.46-.46.23-.78.59-.95,1.06-.17.48-.28.97-.32,1.47-.04.23-.06.45-.06.66v11.03h19.12v-10.48c0-2-.49-3.23-1.47-3.71-.98-.48-2.41-.76-4.29-.84v-1.84h17.28v1.78c-.27.04-.56.07-.87.09-.31.02-.6.05-.86.09-.5.04-.98.1-1.44.2-.46.09-.88.26-1.26.49-.46.23-.78.59-.95,1.06-.17.48-.28.97-.32,1.47-.04.23-.06.45-.06.66v26.17c0,2.23.47,3.54,1.41,3.95.94.4,2.2.64,3.77.72h.58v1.73h-17.28v-1.79c1.92-.04,3.36-.29,4.32-.75.96-.46,1.44-1.73,1.44-3.8v-12.72h-19.12ZM265.97,538.03c-5.8,0-10.64-1.89-14.54-5.67-3.9-3.78-5.84-8.59-5.84-14.42s1.94-10.8,5.82-14.54c3.88-3.74,8.73-5.61,14.57-5.61s10.75,1.87,14.63,5.61c3.88,3.74,5.82,8.59,5.82,14.54s-1.95,10.69-5.85,14.45c-3.89,3.76-8.76,5.65-14.6,5.65h0ZM265.97,536.02c5.07.04,8.6-1.74,10.6-5.33,2-3.59,3.05-7.53,3.17-11.83v-2.07c-.16-4.3-1.22-8.23-3.2-11.8-1.98-3.57-5.5-5.36-10.57-5.36s-8.54,1.79-10.54,5.36c-2,3.57-3.07,7.51-3.22,11.8v1.73c.08,4.42,1.1,8.45,3.08,12.09,1.98,3.65,5.53,5.47,10.68,5.47v-.06h0ZM317.47,538.03c-5.8,0-10.64-1.89-14.54-5.67-3.89-3.78-5.84-8.59-5.84-14.42s1.94-10.8,5.82-14.54c3.88-3.74,8.73-5.61,14.57-5.61s10.75,1.87,14.63,5.61c3.88,3.74,5.81,8.59,5.81,14.54s-1.95,10.69-5.84,14.45c-3.9,3.76-8.76,5.65-14.6,5.65h0ZM317.47,536.02c5.07.04,8.6-1.74,10.6-5.33,2-3.59,3.05-7.53,3.17-11.83v-2.07c-.15-4.3-1.22-8.23-3.2-11.8-1.98-3.57-5.5-5.36-10.57-5.36s-8.54,1.79-10.54,5.36c-2,3.57-3.07,7.51-3.22,11.8v1.73c.08,4.42,1.1,8.45,3.08,12.09,1.98,3.65,5.54,5.47,10.68,5.47v-.06h0ZM378.25,537.05h-31.56v-1.79s.07.06.09.06h.09c1.84-.08,3.24-.34,4.17-.78.94-.44,1.41-1.72,1.41-3.83v-25.68c0-2.07-.48-3.33-1.44-3.77-.96-.44-2.34-.7-4.15-.78h-.17v-1.84h17.28v1.78c-.27.04-.56.07-.86.09-.31.02-.61.05-.92.09-.46.04-.92.11-1.38.23-.46.12-.88.27-1.27.46-.46.23-.78.59-.95,1.06-.17.48-.28.97-.32,1.47-.04.23-.06.45-.06.66v25.54c0,2.03.55,3.4,1.64,4.09,1.09.69,2.56,1.03,4.4,1.03,2.38,0,4.53-.22,6.45-.66,1.92-.44,3.53-1.79,4.84-4.06.35-.65.67-1.34.98-2.07.31-.73.54-1.46.69-2.19.04-.16.07-.31.09-.46.02-.15.03-.31.03-.46l1.67-.06-.75,11.86h0Z"/>
      <path class="cls-2" d="M17.41,485.91v1.1H.11v-1.1h1.43c1.66,0,2.87-.49,3.63-1.47.48-.63.72-2.16.72-4.58v-26.08c0-2.04-.13-3.4-.39-4.05-.2-.5-.61-.92-1.22-1.28-.87-.48-1.79-.71-2.74-.71H.11v-1.11h17.3v1.11h-1.46c-1.65,0-2.85.49-3.6,1.45-.5.64-.75,2.16-.75,4.58v26.08c0,2.04.13,3.39.39,4.04.2.5.62.93,1.25,1.28.85.48,1.76.72,2.71.72h1.46ZM18.09,446.64h10.95l24.67,30.27v-23.27c0-2.48-.28-4.03-.83-4.64-.74-.83-1.9-1.25-3.49-1.25h-1.4v-1.11h14.05v1.11h-1.43c-1.7,0-2.91.52-3.62,1.54-.44.64-.65,2.08-.65,4.35v34.01h-1.08l-26.61-32.5v24.86c0,2.48.27,4.02.8,4.65.75.83,1.92,1.25,3.48,1.25h1.42v1.1h-14.04v-1.1h1.39c1.73,0,2.95-.52,3.67-1.56.44-.63.65-2.08.65-4.34v-28.07c-1.17-1.37-2.06-2.28-2.66-2.71-.61-.44-1.49-.84-2.66-1.22-.58-.17-1.45-.26-2.62-.26v-1.11h0ZM98.18,446.64l.45,9.47h-1.14c-.21-1.67-.51-2.86-.89-3.58-.61-1.15-1.43-1.99-2.45-2.54-1.02-.55-2.37-.82-4.03-.82h-5.69v30.84c0,2.48.27,4.02.8,4.65.75.83,1.92,1.25,3.49,1.25h1.4v1.1h-17.12v-1.1h1.43c1.71,0,2.92-.52,3.63-1.56.44-.63.66-2.08.66-4.34v-30.84h-4.86c-1.88,0-3.22.14-4.01.42-1.04.38-1.92,1.11-2.65,2.17-.73,1.08-1.17,2.52-1.31,4.35h-1.13l.48-9.47h32.94ZM112.88,448.84v15.95h8.87c2.31,0,3.84-.35,4.61-1.04,1.04-.92,1.61-2.52,1.73-4.83h1.1v14.05h-1.1c-.27-1.96-.56-3.22-.83-3.78-.35-.69-.94-1.24-1.76-1.64-.81-.4-2.06-.6-3.75-.6h-8.87v13.31c0,1.79.08,2.88.23,3.26.16.39.44.69.83.92.4.23,1.16.34,2.27.34h6.85c2.28,0,3.94-.15,4.97-.48,1.04-.32,2.02-.93,2.98-1.87,1.23-1.23,2.49-3.09,3.78-5.57h1.19l-3.47,10.12h-31.11v-1.1h1.43c.95,0,1.85-.24,2.7-.69.64-.32,1.07-.79,1.3-1.42.22-.64.33-1.94.33-3.9v-26.22c0-2.56-.25-4.14-.77-4.74-.71-.79-1.9-1.19-3.57-1.19h-1.43v-1.11h31.11l.45,8.84h-1.17c-.41-2.12-.87-3.58-1.38-4.37-.51-.79-1.25-1.4-2.25-1.82-.79-.29-2.2-.45-4.2-.45h-11.07ZM178.56,487h-10.78l-13.66-18.87c-1.01.03-1.83.05-2.47.05-.25,0-.53,0-.84,0-.29-.01-.6-.02-.92-.04v11.73c0,2.54.28,4.11.83,4.73.76.87,1.89,1.31,3.39,1.31h1.58v1.1h-17.29v-1.1h1.51c1.71,0,2.93-.56,3.66-1.67.41-.62.63-2.08.63-4.37v-26.08c0-2.54-.28-4.12-.83-4.72-.77-.88-1.93-1.31-3.45-1.31h-1.51v-1.11h14.7c4.29,0,7.45.32,9.48.94,2.03.62,3.76,1.77,5.18,3.45,1.41,1.69,2.12,3.68,2.12,6,0,2.48-.8,4.63-2.43,6.46-1.61,1.82-4.11,3.11-7.51,3.86l8.33,11.58c1.9,2.66,3.55,4.43,4.91,5.3,1.37.87,3.16,1.42,5.37,1.67v1.1h0ZM149.9,466.26c.38,0,.71,0,.99.01.27.01.51.02.68.02,3.85,0,6.75-.83,8.7-2.5,1.96-1.67,2.94-3.79,2.94-6.37s-.79-4.57-2.37-6.15c-1.57-1.57-3.67-2.37-6.27-2.37-1.15,0-2.7.19-4.67.57v16.78h0ZM177.22,446.64h10.95l24.68,30.27v-23.27c0-2.48-.28-4.03-.83-4.64-.74-.83-1.9-1.25-3.48-1.25h-1.4v-1.11h14.05v1.11h-1.43c-1.71,0-2.91.52-3.63,1.54-.44.64-.65,2.08-.65,4.35v34.01h-1.08l-26.6-32.5v24.86c0,2.48.27,4.02.8,4.65.75.83,1.92,1.25,3.49,1.25h1.42v1.1h-14.04v-1.1h1.39c1.73,0,2.95-.52,3.67-1.56.44-.63.65-2.08.65-4.34v-28.07c-1.17-1.37-2.06-2.28-2.66-2.71-.61-.44-1.49-.84-2.66-1.22-.58-.17-1.45-.26-2.62-.26v-1.11h0ZM249.93,473.49h-15.62l-2.73,6.37c-.68,1.56-1.02,2.73-1.02,3.51,0,.61.29,1.14.87,1.62.59.47,1.85.77,3.8.91v1.1h-12.71v-1.1c1.69-.31,2.77-.69,3.27-1.17,1.02-.95,2.13-2.88,3.36-5.8l14.2-33.21h1.04l14.05,33.56c1.13,2.71,2.15,4.45,3.08,5.25.93.8,2.22,1.26,3.86,1.36v1.1h-15.93v-1.1c1.6-.08,2.69-.36,3.26-.81.57-.45.85-1,.85-1.67,0-.87-.41-2.24-1.2-4.14l-2.44-5.8h0ZM249.09,471.29l-6.85-16.31-7.02,16.31h13.87ZM294.58,446.64l.45,9.47h-1.14c-.21-1.67-.51-2.86-.89-3.58-.61-1.15-1.43-1.99-2.45-2.54-1.03-.55-2.37-.82-4.03-.82h-5.69v30.84c0,2.48.27,4.02.8,4.65.75.83,1.92,1.25,3.48,1.25h1.4v1.1h-17.12v-1.1h1.43c1.71,0,2.92-.52,3.63-1.56.44-.63.66-2.08.66-4.34v-30.84h-4.86c-1.88,0-3.22.14-4.01.42-1.04.38-1.92,1.11-2.65,2.17-.73,1.08-1.17,2.52-1.31,4.35h-1.13l.48-9.47h32.95ZM315.35,485.91v1.1h-17.3v-1.1h1.43c1.67,0,2.87-.49,3.63-1.47.48-.63.72-2.16.72-4.58v-26.08c0-2.04-.13-3.4-.38-4.05-.2-.5-.61-.92-1.22-1.28-.88-.48-1.79-.71-2.74-.71h-1.43v-1.11h17.3v1.11h-1.46c-1.64,0-2.85.49-3.6,1.45-.5.64-.75,2.16-.75,4.58v26.08c0,2.04.13,3.39.39,4.04.2.5.62.93,1.25,1.28.85.48,1.76.72,2.71.72h1.46ZM339.12,445.73c5.24,0,9.78,1.98,13.62,5.96,3.84,3.98,5.76,8.94,5.76,14.89s-1.94,11.22-5.81,15.27c-3.87,4.05-8.55,6.07-14.05,6.07s-10.22-1.98-14-5.92c-3.78-3.95-5.67-9.07-5.67-15.33s2.18-11.63,6.54-15.69c3.8-3.51,8.33-5.26,13.6-5.26h0ZM338.56,447.89c-3.62,0-6.51,1.34-8.69,4.02-2.71,3.33-4.07,8.21-4.07,14.64s1.41,11.67,4.23,15.21c2.16,2.7,5.02,4.05,8.57,4.05,3.79,0,6.92-1.49,9.39-4.44,2.47-2.96,3.71-7.62,3.71-13.99,0-6.9-1.36-12.05-4.08-15.45-2.18-2.7-5.19-4.05-9.04-4.05h0ZM360.05,446.64h10.95l24.67,30.27v-23.27c0-2.48-.28-4.03-.83-4.64-.74-.83-1.9-1.25-3.48-1.25h-1.4v-1.11h14.05v1.11h-1.43c-1.71,0-2.91.52-3.63,1.54-.44.64-.65,2.08-.65,4.35v34.01h-1.08l-26.61-32.5v24.86c0,2.48.27,4.02.8,4.65.75.83,1.92,1.25,3.48,1.25h1.42v1.1h-14.04v-1.1h1.39c1.73,0,2.95-.52,3.67-1.56.44-.63.65-2.08.65-4.34v-28.07c-1.17-1.37-2.06-2.28-2.66-2.71-.61-.44-1.49-.84-2.66-1.22-.58-.17-1.46-.26-2.62-.26v-1.11h0ZM432.75,473.49h-15.62l-2.73,6.37c-.68,1.56-1.02,2.73-1.02,3.51,0,.61.29,1.14.87,1.62.59.47,1.85.77,3.8.91v1.1h-12.71v-1.1c1.69-.31,2.77-.69,3.27-1.17,1.02-.95,2.13-2.88,3.36-5.8l14.2-33.21h1.04l14.05,33.56c1.13,2.71,2.15,4.45,3.08,5.25.92.8,2.22,1.26,3.86,1.36v1.1h-15.93v-1.1c1.6-.08,2.69-.36,3.26-.81.57-.45.85-1,.85-1.67,0-.87-.41-2.24-1.2-4.14l-2.44-5.8h0ZM431.92,471.29l-6.85-16.31-7.02,16.31h13.87ZM483.82,475.84l.98.22-3.45,10.95h-31.25v-1.1h1.53c1.71,0,2.92-.56,3.66-1.67.42-.64.62-2.11.62-4.41v-26.04c0-2.52-.27-4.1-.83-4.72-.77-.88-1.92-1.31-3.44-1.31h-1.53v-1.11h18.28v1.11c-2.14-.02-3.65.17-4.51.59-.86.42-1.45.94-1.77,1.59-.31.63-.48,2.15-.48,4.55v25.35c0,1.65.16,2.77.48,3.39.23.42.6.72,1.1.92.5.19,2.04.29,4.64.29h2.95c3.1,0,5.27-.22,6.52-.68,1.25-.46,2.39-1.27,3.42-2.43,1.03-1.16,2.06-3,3.09-5.5h0Z"/>
      <path class="cls-4" d="M319.2,222.12s-8.43,33.97-33.25,54.93h60.71s-28.19-7.95-25.06-55.17l-2.41.24h0ZM146.54,186.87s-49.47-27.62-45.61-113.87c0,0,.24-46.26,41.44-61.92,0,0,26.74-8.19,23.61,26.74v204.54s-2.17,20-25.78,34.21h43.85s-7.95-33.97,18.55-40.72c0,0-6.99-48.66,29.63-83.36,0,0,22.4-51.31,86.73-48.42,0,0,16.79,2.49,17.51,7.31l-3.05,3.53s-26.02-9.39-48.91,4.82v91.31s30.12-60.71,37.1-65.05l-.24-32.28s10.6,2.41,12.05,2.89l9.39,5.06,3.37-3.62s-4.58-10.36-25.3-16.38v-61.2s5.54-34.93,25.54-40.47h-87.94s21.69,12.53,21.69,30.36c0,0,3.61,12.04,2.65,17.35l.24,57.58s-23.85,1.93-79.27,51.31h-1.2V35.65s2.41-22.16,25.29-35.42l-71.56.48s-60.71,5.54-69.63,80.71c0,0-9.56,101.1,59.83,105.44h0ZM197.29,277.05h30.6l-13.01-9.88s-9.64,3.37-11.56,3.85c0,0-6.26,2.89-6.02,6.03h0Z"/>
      <path class="cls-5" d="M332.81,111.49s-25.18-15.43-68.55,9.18c0,0-28.48,15.8-33.81,50.33,0,0-4.96,52.17,50.9,54.74,0,0-16.17,45.37-33.81,59.7,0,0-9,10.46-23.71,10.46,0,0-31.6,0-29.03-21.3,0,0,3.31-6.43,13.78-8.27.92,0,13.96-6.43,11.58-15.98,0,0-5.51-17.82-24.62-8.27,0,0-15.25,10.29-7.9,36.37,0,0,9.74,29.57,59.35,17.45,0,0,27.93-8.81,46.67-31.41,0,0,14.89-15.06,22.98-44.63,0,0,32.42-7.14,64.3-47.48,0,0,26.19-33.34,14.87-54.3-1.44-.72-10.6-22.88-40.96-2.65,0,0-24.09,20.72-34.45,37.82,0,0-26.26,37.34-36.14,66.49l-2.41,3.85s-29.39,1.45-38.79-21.68c0,0-10.84-43.6,32.77-79.74,1.21,0,16.02-19.13,56.98-10.69h0ZM368.35,112.07s-28.19,10.6-51.56,104.55c0,0,15.42-1.92,34.45-20.96,1.69,0,45.78-44.81,37.58-80.47,0,0-2.89-8.91-20.47-3.13h0Z"/>
      <path class="cls-1" d="M372.78,1.77c6.62,0,12.62,2.68,16.96,7.02,4.34,4.34,7.02,10.33,7.02,16.95s-2.68,12.61-7.02,16.95c-4.34,4.34-10.33,7.02-16.96,7.02s-12.62-2.68-16.95-7.02c-4.34-4.34-7.02-10.33-7.02-16.95s2.68-12.62,7.02-16.95c4.34-4.34,10.33-7.02,16.95-7.02h0ZM387.73,10.79c-3.83-3.83-9.12-6.19-14.96-6.19s-11.13,2.37-14.96,6.19c-3.83,3.83-6.19,9.12-6.19,14.96s2.37,11.13,6.19,14.96c3.83,3.83,9.12,6.19,14.96,6.19s11.13-2.37,14.96-6.19c3.83-3.83,6.19-9.11,6.19-14.96s-2.37-11.13-6.19-14.96h0Z"/>
      <path class="cls-1" d="M362.14,34.48v-15.48h-5.78v-2.06h13.89v2.06h-5.78v15.48h-2.33ZM372.6,34.48v-17.54h3.48l4.15,12.42c.38,1.15.66,2.02.84,2.6.2-.64.51-1.57.94-2.81l4.22-12.2h3.11v17.54h-2.23v-14.67l-5.12,14.67h-2.09l-5.06-14.94v14.94h-2.23Z"/>
    </g>
  </g>
</svg>